# xmcd
#
# Track frame offsets:
#	150
#	9102
#	18766
#	28991
#	46255
#	65307
#	77172
#	88073
#	101936
#	114774
#	124836
#	141020
#	152333
#	166799
#	183261
#	210110
#	220610
#	231217
#	242640
#	254305
#
# Disc length: 3640 seconds
#
# Revision: 2
# Processed by: cddbd v1.5.2PL0 Copyright (c) Steve Scherf et al.
# Submitted via: audiograbber 1.82.02
#
DISCID=ef0e3614
DTITLE=Various Artist - Good Old Country Christmas
DYEAR=2007
DGENRE=Christmas
TTITLE0=Donna Fargo - Rockin' Around The Christmas Tree
TTITLE1=Joe Stampley - Jingle Bell Rock
TTITLE2=Gene Autry - Here Comes Santa Claus
TTITLE3=B.J. Tomas - The Christmas Song
TTITLE4=Eddy Raven - I'll Be Home For Christmas
TTITLE5=Jack Green - Hark! The Harald Angels Sing
TTITLE6=Skeeter Davis - Rudolph The Red-Nosed Reindeer
TTITLE7=Lee Greenwood - Christmas To Christmas
TTITLE8=Kitty Wells - Christmas Ain't Like Christmas Anymore
TTITLE9=Kitty Wells - Dasher With The Light Upon His Tail
TTITLE10=Lee Greenwood - Lone Star Christmas
TTITLE11=Skeeter Davis - Santa Claus Is Coming To Town
TTITLE12=Jeannie C. Riley - Silver Bells
TTITLE13=Jack Greene - O Come All Ye Faithful
TTITLE14=B.J. Tomas - On This Holy Holy Night
TTITLE15=Lacy J. Dalton - Winter Wonderland
TTITLE16=Jeannie C. Riley - Away In A Manger
TTITLE17=Kitty Wells - Ole Kris Kringle
TTITLE18=Donna Fargo - Jingle Bells
TTITLE19=Eddy Raven - Have Yourself A Merry Little Christmas
EXTD=
EXTT0=
EXTT1=
EXTT2=
EXTT3=
EXTT4=
EXTT5=
EXTT6=
EXTT7=
EXTT8=
EXTT9=
EXTT10=
EXTT11=
EXTT12=
EXTT13=
EXTT14=
EXTT15=
EXTT16=
EXTT17=
EXTT18=
EXTT19=
PLAYORDER=
